<svg width="1920" height="971" xmlns="http://www.w3.org/2000/svg"><g><path d="M-66,-105L-116,173L-72,76Z" fill="#fbfef5" stroke="#fbfef5"/><path d="M-66,-105L-72,76L27,-45Z" fill="#fafdf6" stroke="#fafdf6"/><path d="M-66,-105L27,-45L187,-92Z" fill="#f5fbf1" stroke="#f5fbf1"/><path d="M-66,-105L187,-92L657,-117Z" fill="#e9f7e6" stroke="#e9f7e6"/><path d="M-66,-105L657,-117L1081,-134Z" fill="#d8f0dc" stroke="#d8f0dc"/><path d="M27,-45L-72,76L82,34Z" fill="#f6fcf2" stroke="#f6fcf2"/><path d="M27,-45L82,34L187,-92Z" fill="#f2faee" stroke="#f2faee"/><path d="M187,-92L82,34L261,109Z" fill="#edf8e9" stroke="#edf8e9"/><path d="M187,-92L261,109L370,-51Z" fill="#e8f6e5" stroke="#e8f6e5"/><path d="M187,-92L370,-51L657,-117Z" fill="#e1f3e0" stroke="#e1f3e0"/><path d="M370,-51L261,109L415,123Z" fill="#e2f5de" stroke="#e2f5de"/><path d="M370,-51L415,123L493,89Z" fill="#def3dc" stroke="#def3dc"/><path d="M370,-51L493,89L544,-44Z" fill="#ddf2df" stroke="#ddf2df"/><path d="M370,-51L544,-44L657,-117Z" fill="#daf1dd" stroke="#daf1dd"/><path d="M544,-44L493,89L622,86Z" fill="#d7f0da" stroke="#d7f0da"/><path d="M544,-44L622,86L657,-117Z" fill="#d6efdb" stroke="#d6efdb"/><path d="M657,-117L622,86L819,-29Z" fill="#d0eddc" stroke="#d0eddc"/><path d="M657,-117L819,-29L995,-125Z" fill="#c7e9df" stroke="#c7e9df"/><path d="M657,-117L995,-125L1081,-134Z" fill="#c1e7e1" stroke="#c1e7e1"/><path d="M819,-29L622,86L806,104Z" fill="#caebd9" stroke="#caebd9"/><path d="M819,-29L806,104L996,99Z" fill="#c1e8dc" stroke="#c1e8dc"/><path d="M819,-29L996,99L995,-125Z" fill="#bfe6e1" stroke="#bfe6e1"/><path d="M995,-125L996,99L1081,-134Z" fill="#b8e2e2" stroke="#b8e2e2"/><path d="M1081,-134L996,99L1165,54Z" fill="#b3dee2" stroke="#b3dee2"/><path d="M1081,-134L1165,54L1318,-66Z" fill="#a9d7e4" stroke="#a9d7e4"/><path d="M1081,-134L1318,-66L1420,-115Z" fill="#a2d1e5" stroke="#a2d1e5"/><path d="M1081,-134L1420,-115L1598,-114Z" fill="#99c9e1" stroke="#99c9e1"/><path d="M1318,-66L1165,54L1266,106Z" fill="#a3d3e2" stroke="#a3d3e2"/><path d="M1318,-66L1266,106L1384,86Z" fill="#9ccde0" stroke="#9ccde0"/><path d="M1318,-66L1384,86L1420,-115Z" fill="#99c8e0" stroke="#99c8e0"/><path d="M1420,-115L1384,86L1585,105Z" fill="#8fc0db" stroke="#8fc0db"/><path d="M1420,-115L1585,105L1598,-114Z" fill="#8abad9" stroke="#8abad9"/><path d="M1598,-114L1585,105L1734,42Z" fill="#80b0d3" stroke="#80b0d3"/><path d="M1598,-114L1734,42L1756,-47Z" fill="#80abd1" stroke="#80abd1"/><path d="M1598,-114L1756,-47L1928,-49Z" fill="#80a5ce" stroke="#80a5ce"/><path d="M1598,-114L1928,-49L2051,-79Z" fill="#809cca" stroke="#809cca"/><path d="M1756,-47L1734,42L1879,114Z" fill="#7ea3cb" stroke="#7ea3cb"/><path d="M1756,-47L1879,114L1928,-49Z" fill="#809dc9" stroke="#809dc9"/><path d="M1928,-49L1879,114L1982,31Z" fill="#7f96c4" stroke="#7f96c4"/><path d="M1928,-49L1982,31L2051,-79Z" fill="#8091c4" stroke="#8091c4"/><path d="M2051,-79L1982,31L1993,230Z" fill="#7e8fbf" stroke="#7e8fbf"/><path d="M2051,-79L1993,230L2052,423Z" fill="#768db6" stroke="#768db6"/><path d="M2051,-79L2052,423L2063,491Z" fill="#6a8aaf" stroke="#6a8aaf"/><path d="M-72,76L-116,173L53,276Z" fill="#f3fdeb" stroke="#f3fdeb"/><path d="M-72,76L53,276L82,34Z" fill="#f2fceb" stroke="#f2fceb"/><path d="M82,34L53,276L261,109Z" fill="#ebf9e4" stroke="#ebf9e4"/><path d="M261,109L53,276L264,251Z" fill="#e0f8dc" stroke="#e0f8dc"/><path d="M261,109L264,251L415,123Z" fill="#e0f5d9" stroke="#e0f5d9"/><path d="M415,123L264,251L387,280Z" fill="#d6f4d4" stroke="#d6f4d4"/><path d="M415,123L387,280L552,246Z" fill="#d1f2d2" stroke="#d1f2d2"/><path d="M415,123L552,246L493,89Z" fill="#d7f2d5" stroke="#d7f2d5"/><path d="M493,89L552,246L622,86Z" fill="#d3f0d4" stroke="#d3f0d4"/><path d="M622,86L552,246L662,261Z" fill="#caefcf" stroke="#caefcf"/><path d="M622,86L662,261L806,104Z" fill="#caedd2" stroke="#caedd2"/><path d="M806,104L662,261L871,266Z" fill="#bdebd1" stroke="#bdebd1"/><path d="M806,104L871,266L1010,185Z" fill="#b9e7d5" stroke="#b9e7d5"/><path d="M806,104L1010,185L996,99Z" fill="#bae6d9" stroke="#bae6d9"/><path d="M996,99L1010,185L1165,54Z" fill="#b1dfdc" stroke="#b1dfdc"/><path d="M1165,54L1010,185L1099,245Z" fill="#acddd9" stroke="#acddd9"/><path d="M1165,54L1099,245L1266,106Z" fill="#a5d8db" stroke="#a5d8db"/><path d="M1266,106L1099,245L1279,245Z" fill="#9cd5d8" stroke="#9cd5d8"/><path d="M1266,106L1279,245L1392,222Z" fill="#94ced8" stroke="#94ced8"/><path d="M1266,106L1392,222L1384,86Z" fill="#96cbd9" stroke="#96cbd9"/><path d="M1384,86L1392,222L1521,250Z" fill="#8ac3d2" stroke="#8ac3d2"/><path d="M1384,86L1521,250L1585,105Z" fill="#88bdd2" stroke="#88bdd2"/><path d="M1585,105L1521,250L1750,249Z" fill="#77b2c8" stroke="#77b2c8"/><path d="M1585,105L1750,249L1734,42Z" fill="#7bacca" stroke="#7bacca"/><path d="M1734,42L1750,249L1879,114Z" fill="#7ba3c4" stroke="#7ba3c4"/><path d="M1879,114L1750,249L1891,172Z" fill="#789ec0" stroke="#789ec0"/><path d="M1879,114L1891,172L1982,31Z" fill="#7c97c0" stroke="#7c97c0"/><path d="M1982,31L1891,172L1993,230Z" fill="#7a94bc" stroke="#7a94bc"/><path d="M-116,173L-124,383L53,276Z" fill="#e6fee6" stroke="#e6fee6"/><path d="M53,276L-124,383L117,432Z" fill="#d5fae1" stroke="#d5fae1"/><path d="M53,276L117,432L249,383Z" fill="#cef8db" stroke="#cef8db"/><path d="M53,276L249,383L264,251Z" fill="#d4f8d7" stroke="#d4f8d7"/><path d="M264,251L249,383L377,346Z" fill="#cbf6d0" stroke="#cbf6d0"/><path d="M264,251L377,346L387,280Z" fill="#cdf5d0" stroke="#cdf5d0"/><path d="M387,280L377,346L492,317Z" fill="#c6f3cd" stroke="#c6f3cd"/><path d="M387,280L492,317L552,246Z" fill="#c7f2cd" stroke="#c7f2cd"/><path d="M552,246L492,317L643,348Z" fill="#bff0ca" stroke="#bff0ca"/><path d="M552,246L643,348L662,261Z" fill="#beefca" stroke="#beefca"/><path d="M662,261L643,348L875,330Z" fill="#b4ecc9" stroke="#b4ecc9"/><path d="M662,261L875,330L871,266Z" fill="#b2eacd" stroke="#b2eacd"/><path d="M871,266L875,330L1010,185Z" fill="#ade7d1" stroke="#ade7d1"/><path d="M1010,185L875,330L979,405Z" fill="#a5e6cf" stroke="#a5e6cf"/><path d="M1010,185L979,405L1099,245Z" fill="#a2e1d1" stroke="#a2e1d1"/><path d="M1099,245L979,405L1172,352Z" fill="#95ddd0" stroke="#95ddd0"/><path d="M1099,245L1172,352L1279,245Z" fill="#94d7d3" stroke="#94d7d3"/><path d="M1279,245L1172,352L1310,392Z" fill="#87d2d2" stroke="#87d2d2"/><path d="M1279,245L1310,392L1392,222Z" fill="#86ccd1" stroke="#86ccd1"/><path d="M1392,222L1310,392L1396,392Z" fill="#7cc8ce" stroke="#7cc8ce"/><path d="M1392,222L1396,392L1521,250Z" fill="#7cc3cc" stroke="#7cc3cc"/><path d="M1521,250L1396,392L1576,322Z" fill="#72bdc7" stroke="#72bdc7"/><path d="M1521,250L1576,322L1750,249Z" fill="#6db2c5" stroke="#6db2c5"/><path d="M1750,249L1576,322L1684,393Z" fill="#65adbf" stroke="#65adbf"/><path d="M1750,249L1684,393L1900,354Z" fill="#63a3ba" stroke="#63a3ba"/><path d="M1750,249L1900,354L1891,172Z" fill="#6d9dbb" stroke="#6d9dbb"/><path d="M1891,172L1900,354L1993,230Z" fill="#6e96b7" stroke="#6e96b7"/><path d="M1993,230L1900,354L2052,423Z" fill="#6291b1" stroke="#6291b1"/><path d="M-124,383L-105,1158L-96,651Z" fill="#9bcee9" stroke="#9bcee9"/><path d="M-124,383L-96,651L-100,543Z" fill="#bff3f0" stroke="#bff3f0"/><path d="M-124,383L-100,543L35,566Z" fill="#c3f6ed" stroke="#c3f6ed"/><path d="M-124,383L35,566L117,432Z" fill="#c5f7e7" stroke="#c5f7e7"/><path d="M117,432L35,566L232,657Z" fill="#ade9e4" stroke="#ade9e4"/><path d="M117,432L232,657L282,491Z" fill="#adebdf" stroke="#adebdf"/><path d="M117,432L282,491L249,383Z" fill="#bef4da" stroke="#bef4da"/><path d="M249,383L282,491L377,346Z" fill="#bef3d4" stroke="#bef3d4"/><path d="M377,346L282,491L502,468Z" fill="#b4f0d3" stroke="#b4f0d3"/><path d="M377,346L502,468L492,317Z" fill="#baf0ce" stroke="#baf0ce"/><path d="M492,317L502,468L643,348Z" fill="#b5eecc" stroke="#b5eecc"/><path d="M643,348L502,468L632,478Z" fill="#a9ebce" stroke="#a9ebce"/><path d="M643,348L632,478L870,519Z" fill="#9ee8d0" stroke="#9ee8d0"/><path d="M643,348L870,519L875,330Z" fill="#a1e7ce" stroke="#a1e7ce"/><path d="M875,330L870,519L979,405Z" fill="#96e4d2" stroke="#96e4d2"/><path d="M979,405L870,519L983,522Z" fill="#89e0d7" stroke="#89e0d7"/><path d="M979,405L983,522L1177,523Z" fill="#80dad8" stroke="#80dad8"/><path d="M979,405L1177,523L1172,352Z" fill="#84d8d5" stroke="#84d8d5"/><path d="M1172,352L1177,523L1251,496Z" fill="#77d1d8" stroke="#77d1d8"/><path d="M1172,352L1251,496L1310,392Z" fill="#7ad0d6" stroke="#7ad0d6"/><path d="M1310,392L1251,496L1396,392Z" fill="#71c9d5" stroke="#71c9d5"/><path d="M1396,392L1251,496L1480,560Z" fill="#63c2d6" stroke="#63c2d6"/><path d="M1396,392L1480,560L1576,322Z" fill="#62bbcd" stroke="#62bbcd"/><path d="M1576,322L1480,560L1621,551Z" fill="#53b2cd" stroke="#53b2cd"/><path d="M1576,322L1621,551L1684,393Z" fill="#56aec6" stroke="#56aec6"/><path d="M1684,393L1621,551L1736,552Z" fill="#47a4c8" stroke="#47a4c8"/><path d="M1684,393L1736,552L1900,354Z" fill="#52a0c0" stroke="#52a0c0"/><path d="M1900,354L1736,552L1916,571Z" fill="#4896c0" stroke="#4896c0"/><path d="M1900,354L1916,571L2052,423Z" fill="#508fb9" stroke="#508fb9"/><path d="M2052,423L1916,571L2063,491Z" fill="#4887b8" stroke="#4887b8"/><path d="M-100,543L-96,651L35,566Z" fill="#b0e8ee" stroke="#b0e8ee"/><path d="M35,566L-96,651L28,729Z" fill="#a1dded" stroke="#a1dded"/><path d="M35,566L28,729L232,657Z" fill="#9adbe7" stroke="#9adbe7"/><path d="M282,491L232,657L433,574Z" fill="#9de2da" stroke="#9de2da"/><path d="M282,491L433,574L502,468Z" fill="#a5e9d6" stroke="#a5e9d6"/><path d="M433,574L232,657L343,728Z" fill="#8cd5da" stroke="#8cd5da"/><path d="M433,574L343,728L528,623Z" fill="#89d5d8" stroke="#89d5d8"/><path d="M433,574L528,623L502,468Z" fill="#98e1d5" stroke="#98e1d5"/><path d="M502,468L528,623L632,478Z" fill="#9be4d3" stroke="#9be4d3"/><path d="M632,478L528,623L662,668Z" fill="#8ad9d3" stroke="#8ad9d3"/><path d="M632,478L662,668L870,519Z" fill="#8adcd3" stroke="#8adcd3"/><path d="M870,519L662,668L825,699Z" fill="#76ced6" stroke="#76ced6"/><path d="M870,519L825,699L921,623Z" fill="#73ced8" stroke="#73ced8"/><path d="M870,519L921,623L983,522Z" fill="#7bd6d8" stroke="#7bd6d8"/><path d="M983,522L921,623L1077,665Z" fill="#6cccda" stroke="#6cccda"/><path d="M983,522L1077,665L1177,523Z" fill="#6bcbda" stroke="#6bcbda"/><path d="M1177,523L1077,665L1307,713Z" fill="#55badc" stroke="#55badc"/><path d="M1177,523L1307,713L1251,496Z" fill="#5bbfdc" stroke="#5bbfdc"/><path d="M1251,496L1307,713L1391,697Z" fill="#49b0dc" stroke="#49b0dc"/><path d="M1251,496L1391,697L1480,560Z" fill="#4eb3d8" stroke="#4eb3d8"/><path d="M1480,560L1391,697L1589,647Z" fill="#39a1d4" stroke="#39a1d4"/><path d="M1480,560L1589,647L1621,551Z" fill="#3ca2cf" stroke="#3ca2cf"/><path d="M1621,551L1589,647L1736,681Z" fill="#2d93cc" stroke="#2d93cc"/><path d="M1621,551L1736,681L1736,552Z" fill="#3394c9" stroke="#3394c9"/><path d="M1736,552L1736,681L1828,675Z" fill="#2b88c7" stroke="#2b88c7"/><path d="M1736,552L1828,675L1916,571Z" fill="#3288c3" stroke="#3288c3"/><path d="M1916,571L1828,675L2065,621Z" fill="#2d7abe" stroke="#2d7abe"/><path d="M1916,571L2065,621L2063,491Z" fill="#3a7db9" stroke="#3a7db9"/><path d="M-96,651L-105,1158L-69,854Z" fill="#84acd7" stroke="#84acd7"/><path d="M-96,651L-69,854L28,729Z" fill="#95cae4" stroke="#95cae4"/><path d="M28,729L-69,854L46,864Z" fill="#89b9da" stroke="#89b9da"/><path d="M28,729L46,864L261,874Z" fill="#81b5d3" stroke="#81b5d3"/><path d="M28,729L261,874L232,657Z" fill="#88c3d7" stroke="#88c3d7"/><path d="M232,657L261,874L343,728Z" fill="#82c1d2" stroke="#82c1d2"/><path d="M343,728L261,874L426,832Z" fill="#76b3c9" stroke="#76b3c9"/><path d="M343,728L426,832L496,787Z" fill="#76b7ca" stroke="#76b7ca"/><path d="M343,728L496,787L528,623Z" fill="#7ec5d0" stroke="#7ec5d0"/><path d="M528,623L496,787L662,668Z" fill="#7ac7d0" stroke="#7ac7d0"/><path d="M662,668L496,787L640,860Z" fill="#6db6c6" stroke="#6db6c6"/><path d="M662,668L640,860L825,699Z" fill="#6ab9ca" stroke="#6ab9ca"/><path d="M825,699L640,860L857,848Z" fill="#5dabc5" stroke="#5dabc5"/><path d="M825,699L857,848L975,831Z" fill="#57aac9" stroke="#57aac9"/><path d="M825,699L975,831L921,623Z" fill="#5fb9d2" stroke="#5fb9d2"/><path d="M921,623L975,831L1077,665Z" fill="#5bb8d5" stroke="#5bb8d5"/><path d="M1077,665L975,831L1177,881Z" fill="#48a0cc" stroke="#48a0cc"/><path d="M1077,665L1177,881L1302,794Z" fill="#409bce" stroke="#409bce"/><path d="M1077,665L1302,794L1307,713Z" fill="#44a5d5" stroke="#44a5d5"/><path d="M1307,713L1302,794L1391,697Z" fill="#399ad2" stroke="#399ad2"/><path d="M1391,697L1302,794L1481,832Z" fill="#2e8dcb" stroke="#2e8dcb"/><path d="M1391,697L1481,832L1529,806Z" fill="#2785c6" stroke="#2785c6"/><path d="M1391,697L1529,806L1589,647Z" fill="#2c8fcc" stroke="#2c8fcc"/><path d="M1589,647L1529,806L1677,826Z" fill="#1d7dc2" stroke="#1d7dc2"/><path d="M1589,647L1677,826L1736,681Z" fill="#1e80c4" stroke="#1e80c4"/><path d="M1736,681L1677,826L1839,835Z" fill="#166bb9" stroke="#166bb9"/><path d="M1736,681L1839,835L1828,675Z" fill="#1d71bc" stroke="#1d71bc"/><path d="M1828,675L1839,835L2035,853Z" fill="#155cb1" stroke="#155cb1"/><path d="M1828,675L2035,853L2065,621Z" fill="#1f64b6" stroke="#1f64b6"/><path d="M2065,621L2035,853L2029,1035Z" fill="#0e44a5" stroke="#0e44a5"/><path d="M-69,854L-105,1158L-68,1008Z" fill="#7d93c9" stroke="#7d93c9"/><path d="M-69,854L-68,1008L46,864Z" fill="#7da6d1" stroke="#7da6d1"/><path d="M46,864L-68,1008L110,916Z" fill="#78a1cc" stroke="#78a1cc"/><path d="M46,864L110,916L261,874Z" fill="#77a8cb" stroke="#77a8cb"/><path d="M261,874L110,916L176,966Z" fill="#709fc5" stroke="#709fc5"/><path d="M261,874L176,966L325,981Z" fill="#6a99be" stroke="#6a99be"/><path d="M261,874L325,981L426,832Z" fill="#6ba1bf" stroke="#6ba1bf"/><path d="M426,832L325,981L478,1005Z" fill="#6196b9" stroke="#6196b9"/><path d="M426,832L478,1005L496,787Z" fill="#67a3be" stroke="#67a3be"/><path d="M496,787L478,1005L640,860Z" fill="#619fbb" stroke="#619fbb"/><path d="M640,860L478,1005L706,942Z" fill="#5692b4" stroke="#5692b4"/><path d="M640,860L706,942L794,938Z" fill="#5295b7" stroke="#5295b7"/><path d="M640,860L794,938L857,848Z" fill="#539abc" stroke="#539abc"/><path d="M857,848L794,938L1004,955Z" fill="#4690bb" stroke="#4690bb"/><path d="M857,848L1004,955L975,831Z" fill="#4796c1" stroke="#4796c1"/><path d="M975,831L1004,955L1071,926Z" fill="#3d8dbf" stroke="#3d8dbf"/><path d="M975,831L1071,926L1177,881Z" fill="#3b8ec2" stroke="#3b8ec2"/><path d="M1177,881L1071,926L1287,1079Z" fill="#2b75ba" stroke="#2b75ba"/><path d="M1177,881L1287,1079L1323,917Z" fill="#2370bb" stroke="#2370bb"/><path d="M1177,881L1323,917L1302,794Z" fill="#2d85c6" stroke="#2d85c6"/><path d="M1302,794L1323,917L1481,832Z" fill="#267fc3" stroke="#267fc3"/><path d="M1481,832L1323,917L1402,1002Z" fill="#196dba" stroke="#196dba"/><path d="M1481,832L1402,1002L1580,1027Z" fill="#0f5db2" stroke="#0f5db2"/><path d="M1481,832L1580,1027L1529,806Z" fill="#1168b7" stroke="#1168b7"/><path d="M1529,806L1580,1027L1677,826Z" fill="#0c62b4" stroke="#0c62b4"/><path d="M1677,826L1580,1027L1772,957Z" fill="#0050ab" stroke="#0050ab"/><path d="M1677,826L1772,957L1839,835Z" fill="#0956ae" stroke="#0956ae"/><path d="M1839,835L1772,957L1855,930Z" fill="#0449a7" stroke="#0449a7"/><path d="M1839,835L1855,930L2035,853Z" fill="#0949a7" stroke="#0949a7"/><path d="M2035,853L1855,930L2029,1035Z" fill="#00359d" stroke="#00359d"/><path d="M-68,1008L-105,1158L17,1128Z" fill="#7b7ebe" stroke="#7b7ebe"/><path d="M-68,1008L17,1128L110,916Z" fill="#778ec3" stroke="#778ec3"/><path d="M110,916L17,1128L176,966Z" fill="#738fc0" stroke="#738fc0"/><path d="M176,966L17,1128L206,1082Z" fill="#7183b7" stroke="#7183b7"/><path d="M176,966L206,1082L325,981Z" fill="#6b8bb7" stroke="#6b8bb7"/><path d="M325,981L206,1082L338,1133Z" fill="#687eae" stroke="#687eae"/><path d="M325,981L338,1133L473,1081Z" fill="#637cab" stroke="#637cab"/><path d="M325,981L473,1081L478,1005Z" fill="#6084af" stroke="#6084af"/><path d="M478,1005L473,1081L664,1172Z" fill="#5a74a5" stroke="#5a74a5"/><path d="M478,1005L664,1172L706,942Z" fill="#567ca8" stroke="#567ca8"/><path d="M706,942L664,1172L852,1089Z" fill="#4d73a7" stroke="#4d73a7"/><path d="M706,942L852,1089L794,938Z" fill="#4a82b1" stroke="#4a82b1"/><path d="M794,938L852,1089L936,1072Z" fill="#4577ad" stroke="#4577ad"/><path d="M794,938L936,1072L1004,955Z" fill="#4180b4" stroke="#4180b4"/><path d="M1004,955L936,1072L1148,1176Z" fill="#3869ac" stroke="#3869ac"/><path d="M1004,955L1148,1176L1071,926Z" fill="#3470b2" stroke="#3470b2"/><path d="M1071,926L1148,1176L1287,1079Z" fill="#2b61af" stroke="#2b61af"/><path d="M1323,917L1287,1079L1402,1002Z" fill="#1c62b4" stroke="#1c62b4"/><path d="M1402,1002L1287,1079L1403,1092Z" fill="#1a53ac" stroke="#1a53ac"/><path d="M1402,1002L1403,1092L1580,1027Z" fill="#114daa" stroke="#114daa"/><path d="M1580,1027L1403,1092L1533,1168Z" fill="#0d3ea1" stroke="#0d3ea1"/><path d="M1580,1027L1533,1168L1667,1123Z" fill="#05359c" stroke="#05359c"/><path d="M1580,1027L1667,1123L1772,957Z" fill="#003ba0" stroke="#003ba0"/><path d="M1772,957L1667,1123L1893,1071Z" fill="#002f99" stroke="#002f99"/><path d="M1772,957L1893,1071L1855,930Z" fill="#00379e" stroke="#00379e"/><path d="M1855,930L1893,1071L2029,1035Z" fill="#002a97" stroke="#002a97"/><path d="M2029,1035L1893,1071L1976,1158Z" fill="#00168d" stroke="#00168d"/><path d="M-105,1158L664,1172L338,1133Z" fill="#6776a4" stroke="#6776a4"/><path d="M-105,1158L338,1133L17,1128Z" fill="#747bb1" stroke="#747bb1"/><path d="M17,1128L338,1133L206,1082Z" fill="#6e79af" stroke="#6e79af"/><path d="M338,1133L664,1172L473,1081Z" fill="#5d72a1" stroke="#5d72a1"/><path d="M664,1172L1148,1176L852,1089Z" fill="#4368a2" stroke="#4368a2"/><path d="M852,1089L1148,1176L936,1072Z" fill="#3c65a7" stroke="#3c65a7"/><path d="M1148,1176L1533,1168L1403,1092Z" fill="#1a4aa2" stroke="#1a4aa2"/><path d="M1148,1176L1403,1092L1287,1079Z" fill="#2251aa" stroke="#2251aa"/><path d="M1533,1168L1976,1158L1667,1123Z" fill="#002991" stroke="#002991"/><path d="M1667,1123L1976,1158L1893,1071Z" fill="#001e8f" stroke="#001e8f"/></g></svg>